<?xml version="1.0" standalone="no"?>
<!-- Generator: Adobe Fireworks 10, Export SVG Extension by Aaron Beall (http://fireworks.abeall.com) . Version: 0.6.1  -->
<!DOCTYPE svg PUBLIC "-//W3C//DTD SVG 1.1//EN" "http://www.w3.org/Graphics/SVG/1.1/DTD/svg11.dtd">
<svg id="header-Page%201" viewBox="0 0 571 192" style="background-color:#ffffff00" version="1.1"
	xmlns="http://www.w3.org/2000/svg" xmlns:xlink="http://www.w3.org/1999/xlink" xml:space="preserve"
	x="0px" y="0px" width="571px" height="192px"
>
	<g>
		<path d="M 145.7761 168.9645 C 105.6202 197.4495 92.9069 192.6936 125.5338 169.5842 C 158.5329 146.2114 165.0774 99.4633 140.2861 64.1254 C 134.9706 56.5486 136.8209 45.3653 144.413 40.0566 C 151.9962 34.7542 162.4301 36.5907 167.7322 44.1526 C 195.9923 84.4573 186.2571 140.249 145.7761 168.9645 ZM 42.7126 22.1927 C 82.9949 -5.697 95.6454 -0.8535 63.056 21.7444 C 29.7559 44.835 22.9253 91.0346 47.9431 126.6289 C 53.3028 134.2544 51.4032 146.2919 43.6911 151.7091 C 35.9701 157.1325 25.3539 155.3418 19.9806 147.7013 C -8.6849 106.9403 1.5892 50.6646 42.7126 22.1927 Z" fill="#ffffff"/>
	</g>
	<text x="223.6666" y="135.3116" width="321.0713" fill="#111111" style="font-family: Noto Sans UI; font-size: 89px; text-align: center; color: #111111; "><tspan><![CDATA[Journaley]]></tspan></text>
	<text x="184.3095" y="162.9014" width="400.7856" fill="#494441" style="font-family: Noto Sans; font-size: 18px; text-align: center; color: #494441; "><tspan><![CDATA[A simple and elegant journaling application for Windows.]]></tspan></text>
</svg>